<svg width="85" height="84" viewBox="0 0 85 84" fill="none" xmlns="http://www.w3.org/2000/svg">
<path d="M42.5001 84H42.195C22.5632 83.9486 9.4093 79.8846 6.67551 77.3782C3.79512 74.8165 -0.000488281 61.5689 -0.000488281 42C-0.000488281 22.4311 3.79512 9.18355 6.67947 6.6218C9.4093 4.1154 22.6147 0.0513931 42.195 0H42.5001C62.1319 0.0513931 75.2858 4.1154 78.0195 6.6218C80.9039 9.17959 84.6995 22.4785 84.6995 41.996C84.6995 61.5136 80.9039 74.8125 78.0195 77.3703C75.2858 79.9281 62.1319 83.9921 42.5001 83.9921V84Z" fill="#FFFAEB"/>
<mask id="mask0_2217_14489" style="mask-type:alpha" maskUnits="userSpaceOnUse" x="22" y="22" width="40" height="40">
<rect x="22" y="22" width="40" height="40" fill="#D9D9D9"/>
</mask>
<g mask="url(#mask0_2217_14489)">
<path d="M27.4168 55.3346C26.8381 55.3346 26.3462 55.1316 25.9411 54.7256C25.536 54.3195 25.3335 53.8265 25.3335 53.2464C25.3335 52.6663 25.536 52.1749 25.9411 51.7722C26.3462 51.3694 26.8381 51.168 27.4168 51.168H28.6668V31.4457C28.6668 30.6818 28.9388 30.0279 29.4828 29.4839C30.0268 28.94 30.6807 28.668 31.4446 28.668H55.6113C56.0048 28.668 56.3347 28.8015 56.6009 29.0687C56.8671 29.3358 57.0002 29.6668 57.0002 30.0617C57.0002 30.4566 56.8671 30.786 56.6009 31.0499C56.3347 31.3138 56.0048 31.4457 55.6113 31.4457H31.4446V51.168H39.3613C39.94 51.168 40.4319 51.371 40.837 51.7771C41.242 52.1831 41.4446 52.6762 41.4446 53.2562C41.4446 53.8363 41.242 54.3277 40.837 54.7305C40.4319 55.1332 39.94 55.3346 39.3613 55.3346H27.4168Z" fill="#092256"/>
<path d="M44.6215 54.9345C44.8877 55.2007 45.2175 55.3338 45.611 55.3338H57.2778C57.6713 55.3338 58.0011 55.2007 58.2673 54.9345C58.5335 54.6683 58.6666 54.3384 58.6666 53.9449V35.6115C58.6666 35.218 58.5335 34.8881 58.2673 34.6219C58.0011 34.3558 57.6713 34.2227 57.2778 34.2227H45.611C45.2175 34.2227 44.8877 34.3558 44.6215 34.6219C44.3553 34.8881 44.2222 35.218 44.2222 35.6115V53.9449C44.2222 54.3384 44.3553 54.6683 44.6215 54.9345Z" fill="#0357EE"/>
</g>
</svg>
