<svg width="85" height="84" viewBox="0 0 85 84" fill="none" xmlns="http://www.w3.org/2000/svg">
<path d="M42.5001 84H42.195C22.5632 83.9486 9.4093 79.8846 6.67551 77.3782C3.79512 74.8165 -0.000488281 61.5689 -0.000488281 42C-0.000488281 22.4311 3.79512 9.18355 6.67947 6.6218C9.4093 4.1154 22.6147 0.0513931 42.195 0H42.5001C62.1319 0.0513931 75.2858 4.1154 78.0195 6.6218C80.9039 9.17959 84.6995 22.4785 84.6995 41.996C84.6995 61.5136 80.9039 74.8125 78.0195 77.3703C75.2858 79.9281 62.1319 83.9921 42.5001 83.9921V84Z" fill="#FFFAEB"/>
<mask id="mask0_2217_14454" style="mask-type:alpha" maskUnits="userSpaceOnUse" x="22" y="22" width="41" height="41">
<rect x="22.7471" y="22.082" width="40" height="40" fill="#D9D9D9"/>
</mask>
<g mask="url(#mask0_2217_14454)">
<path d="M34.0109 53.5108C33.5294 53.9923 32.9715 54.2168 32.3373 54.1844C31.703 54.152 31.2007 53.8719 30.8304 53.3442C28.9785 50.7238 27.9577 47.8418 27.7679 44.6983C27.5781 41.5548 28.2193 38.5942 29.6915 35.8164C29.7563 36.7423 29.9693 37.777 30.3304 38.9205C30.6915 40.064 31.1984 41.2608 31.8512 42.5108C32.504 43.7608 33.2841 45.0501 34.1914 46.3788C35.0989 47.7076 36.1128 49.0108 37.2331 50.2885L34.0109 53.5108ZM39.1359 48.3858C37.784 47.0154 36.6081 45.5455 35.6081 43.9761C34.6081 42.4066 33.8419 40.8904 33.3095 39.4275C32.7771 37.9645 32.4993 36.6242 32.4762 35.4066C32.453 34.189 32.7424 33.2608 33.3442 32.6219C33.9831 31.9367 34.9253 31.5941 36.1706 31.5941C37.416 31.5941 38.7956 31.8557 40.3095 32.3788C41.8234 32.902 43.379 33.6612 44.9762 34.6566C46.5734 35.652 48.0294 36.8256 49.3442 38.1775L39.1359 48.3858ZM54.2748 29.8997C54.8026 30.2701 55.085 30.7701 55.122 31.3997C55.1591 32.0293 54.9368 32.5848 54.4554 33.0663L51.247 36.2747C49.997 35.1543 48.7123 34.1451 47.3929 33.2469C46.0734 32.3488 44.7771 31.5756 43.5039 30.9275C42.2308 30.2793 41.0086 29.777 39.8373 29.4205C38.666 29.064 37.6081 28.8627 36.6637 28.8164C39.4507 27.3441 42.4276 26.696 45.5942 26.8719C48.7609 27.0478 51.6545 28.0571 54.2748 29.8997Z" fill="#092256"/>
<path d="M44.9136 46.0243L54.7192 55.8299C55.0062 56.1169 55.3488 56.2604 55.7469 56.2604C56.145 56.2604 56.4876 56.1169 56.7747 55.8299C57.0617 55.5428 57.2052 55.2003 57.2052 54.8021C57.2052 54.4039 57.0617 54.0614 56.7747 53.7743L46.9691 43.9688L44.9136 46.0243Z" fill="#0357EE"/>
</g>
</svg>
