<svg width="85" height="84" viewBox="0 0 85 84" fill="none" xmlns="http://www.w3.org/2000/svg">
<path d="M42.501 84H42.196C22.5642 83.9486 9.41028 79.8846 6.67649 77.3782C3.7961 74.8165 0.000488281 61.5689 0.000488281 42C0.000488281 22.4311 3.7961 9.18355 6.68045 6.6218C9.41028 4.1154 22.6157 0.0513931 42.196 0H42.501C62.1328 0.0513931 75.2867 4.1154 78.0205 6.6218C80.9049 9.17959 84.7005 22.4785 84.7005 41.996C84.7005 61.5136 80.9049 74.8125 78.0205 77.3703C75.2867 79.9281 62.1328 83.9921 42.501 83.9921V84Z" fill="#FFFAEB"/>
<mask id="mask0_2217_14464" style="mask-type:alpha" maskUnits="userSpaceOnUse" x="22" y="22" width="40" height="40">
<rect x="62" y="62" width="40" height="40" transform="rotate(-180 62 62)" fill="#D9D9D9"/>
</mask>
<g mask="url(#mask0_2217_14464)">
<path d="M50.8888 23.6654C51.6388 23.6654 52.2892 23.9408 52.8401 24.4917C53.391 25.0427 53.6665 25.6931 53.6665 26.4431L53.6665 57.5543C53.6665 58.3043 53.391 58.9547 52.8401 59.5057C52.2892 60.0566 51.6388 60.332 50.8888 60.332L33.1109 60.332C32.3609 60.332 31.7105 60.0566 31.1595 59.5057C30.6086 58.9547 30.3332 58.3043 30.3332 57.5543L30.3332 26.4431C30.3332 25.6931 30.6086 25.0427 31.1595 24.4917C31.7105 23.9408 32.3609 23.6654 33.1109 23.6654L50.8888 23.6654ZM50.8888 30.6098L33.1109 30.6098L33.1109 53.3876L50.8888 53.3876L50.8888 30.6098Z" fill="#092256"/>
<path d="M43.3886 46.9432L43.3886 40.6376L45.5553 42.8181C45.833 43.0866 46.1641 43.2186 46.5483 43.2139C46.9326 43.2093 47.2589 43.0728 47.5275 42.8042C47.8052 42.5265 47.9464 42.1954 47.9511 41.8112C47.9557 41.4269 47.8237 41.1006 47.5552 40.832L42.9719 36.2487C42.6941 35.9709 42.37 35.832 41.9997 35.832C41.6293 35.832 41.3052 35.9709 41.0275 36.2487L36.4719 40.832C36.2034 41.1006 36.0691 41.4293 36.0691 41.8182C36.0691 42.207 36.2034 42.5357 36.4719 42.8042C36.7497 43.082 37.0761 43.2209 37.4511 43.2209C37.8261 43.2209 38.1478 43.0866 38.4163 42.8181L40.6108 40.6376L40.6108 46.9432C40.6108 47.3413 40.7427 47.6723 41.0066 47.9362C41.2705 48.2001 41.6015 48.332 41.9997 48.332C42.3978 48.332 42.7288 48.2001 42.9927 47.9362C43.2566 47.6723 43.3886 47.3413 43.3886 46.9432Z" fill="#0357EE"/>
</g>
</svg>
