<svg width="85" height="84" viewBox="0 0 85 84" fill="none" xmlns="http://www.w3.org/2000/svg">
<path d="M42.5006 84H42.1955C22.5637 83.9486 9.40979 79.8846 6.676 77.3782C3.79561 74.8165 0 61.5689 0 42C0 22.4311 3.79561 9.18355 6.67996 6.6218C9.40979 4.1154 22.6152 0.0513931 42.1955 0H42.5006C62.1323 0.0513931 75.2862 4.1154 78.02 6.6218C80.9044 9.17959 84.7 22.4785 84.7 41.996C84.7 61.5136 80.9044 74.8125 78.02 77.3703C75.2862 79.9281 62.1323 83.9921 42.5006 83.9921V84Z" fill="#FFFAEB"/>
<mask id="mask0_2217_14475" style="mask-type:alpha" maskUnits="userSpaceOnUse" x="22" y="22" width="40" height="40">
<rect x="22" y="22" width="40" height="40" fill="#D9D9D9"/>
</mask>
<g mask="url(#mask0_2217_14475)">
<path d="M36.722 35.5013H47.2776V31.8068C47.2776 30.3177 46.7648 29.0518 45.7392 28.0094C44.7136 26.9669 43.4683 26.4457 42.0031 26.4457C40.5379 26.4457 39.2915 26.9669 38.2637 28.0094C37.2359 29.0518 36.722 30.3177 36.722 31.8068V35.5013ZM44.2777 58.668H31.4443C30.6804 58.668 30.0264 58.396 29.4825 57.852C28.9385 57.308 28.6665 56.6541 28.6665 55.8902V38.2791C28.6665 37.5152 28.9385 36.8613 29.4825 36.3173C30.0264 35.7733 30.6804 35.5013 31.4443 35.5013H33.9443V31.8068C33.9443 29.5551 34.73 27.6357 36.3014 26.0486C37.8728 24.4615 39.7733 23.668 42.0028 23.668C44.2323 23.668 46.1318 24.4615 47.7012 26.0486C49.2707 27.6357 50.0554 29.5551 50.0554 31.8068V35.5013H52.5554C53.3193 35.5013 53.9732 35.7733 54.5172 36.3173C55.0612 36.8613 55.3332 37.5152 55.3332 38.2791V41.418C54.8702 41.2884 54.4072 41.2004 53.9443 41.1541C53.4813 41.1078 53.0184 41.0939 52.5554 41.1124C49.5832 41.1865 47.0809 42.2814 45.0485 44.3971C43.0161 46.5129 41.9999 49.0569 41.9999 52.0291C41.9999 53.242 42.2013 54.411 42.604 55.536C43.0068 56.661 43.5647 57.705 44.2777 58.668Z" fill="#092256"/>
<path d="M52.9167 60.1684C50.6482 60.1684 48.7246 59.3791 47.1459 57.8004C45.5672 56.2217 44.7778 54.298 44.7778 52.0295C44.7778 49.761 45.5672 47.8374 47.1459 46.2587C48.7246 44.68 50.6482 43.8906 52.9167 43.8906C55.1852 43.8906 57.1089 44.68 58.6876 46.2587C60.2663 47.8374 61.0556 49.761 61.0556 52.0295C61.0556 54.298 60.2663 56.2217 58.6876 57.8004C57.1089 59.3791 55.1852 60.1684 52.9167 60.1684ZM52.9167 51.7517C53.6652 51.7517 54.3014 51.4896 54.8253 50.9654C55.3492 50.4412 55.6112 49.8046 55.6112 49.0557C55.6112 48.3067 55.3492 47.6753 54.8253 47.1615C54.3014 46.6476 53.6652 46.3906 52.9167 46.3906C52.176 46.3906 51.5464 46.6508 51.0278 47.1712C50.5093 47.6917 50.2501 48.3236 50.2501 49.0671C50.2501 49.8106 50.5093 50.4439 51.0278 50.967C51.5464 51.4902 52.176 51.7517 52.9167 51.7517ZM52.9108 57.1129C53.8037 57.1129 54.639 56.9045 55.4167 56.4879C56.1945 56.0712 56.8288 55.4971 57.3195 54.7656C56.6251 54.3767 55.9121 54.0735 55.1806 53.8559C54.4492 53.6383 53.6945 53.5295 52.9167 53.5295C52.139 53.5295 51.3843 53.6383 50.6528 53.8559C49.9214 54.0735 49.2084 54.3767 48.514 54.7656C49.0047 55.4971 49.637 56.0712 50.4108 56.4879C51.1846 56.9045 52.0179 57.1129 52.9108 57.1129Z" fill="#0357EE"/>
</g>
</svg>
